<svg xmlns="http://www.w3.org/2000/svg" xmlns:xlink="http://www.w3.org/1999/xlink" xmlns:lucid="lucid" width="471.19" height="213.67"><g transform="translate(-840 -475.50004999999953)" lucid:page-tab-id="0_0"><path d="M1080 526a6 6 0 0 1 6-6h89.33a6 6 0 0 1 6 6v31.33a6 6 0 0 1-6 6H1086a6 6 0 0 1-6-6z" stroke="#282c33" fill="#fff"/><use xlink:href="#a" transform="matrix(1,0,0,1,1092,532) translate(0.7592592592592595 17.77777777777778)"/><path d="M940 526.5a6 6 0 0 1 6-6h89.33a6 6 0 0 1 6 6v31.33a6 6 0 0 1-6 6H946a6 6 0 0 1-6-6z" stroke="#282c33" fill="#fff"/><use xlink:href="#b" transform="matrix(1,0,0,1,952,532.4999500000002) translate(3.2592592592592595 17.77777777777778)"/><path d="M1000 631.33a6 6 0 0 1 6-6h108a6 6 0 0 1 6 6v31.34a6 6 0 0 1-6 6h-108a6 6 0 0 1-6-6z" stroke="#282c33" fill="#fff"/><use xlink:href="#c" transform="matrix(1,0,0,1,1012,637.3333333333334) translate(-1.9691358024691397 17.77777777777778)"/><path d="M990.67 564.83v19.67a6 6 0 0 0 6 6H1054a6 6 0 0 1 6 6v11.95" stroke="#3a414a" fill="none"/><path d="M991.14 564.85h-.95v-.52h.94z" stroke="#3a414a" stroke-width=".05" fill="#3a414a"/><path d="M1060 623.2l-4.63-14.25h9.27z" stroke="#3a414a" fill="#3a414a"/><path d="M1130.67 564.33V584a6 6 0 0 1-6 6H1066a6 6 0 0 0-6 6v12.45" stroke="#3a414a" fill="none"/><path d="M1131.14 564.35h-.95v-.52h.94z" stroke="#3a414a" stroke-width=".05" fill="#3a414a"/><path d="M1060 623.2l-4.63-14.25h9.27z" stroke="#3a414a" fill="#3a414a"/><path d="M1121 647h83a6 6 0 0 0 6-6v-93.33a6 6 0 0 0-6-6h-5.78" stroke="#3a414a" fill="none"/><path d="M1121 647.48h-.5v-.96h.5z" stroke="#3a414a" stroke-width=".05" fill="#3a414a"/><path d="M1183.45 541.67l14.27-4.64v9.27z" stroke="#3a414a" fill="#3a414a"/><path d="M1255.6 526.5v-3.58m0-4.76V511m0-4.76v-3.57l-.08-.94-.22-.92-.36-.86-.5-.8-.6-.72-.72-.6-.8-.5-.87-.36-.92-.22-.94-.07h-4.38m-5.84 0h-8.75m-5.84 0h-8.76m-5.84 0h-8.75m-5.84 0h-8.74m-5.84 0h-8.75m-5.84 0h-8.75m-5.83 0h-8.76m-5.84 0h-4.38l-.35.02-.33.07-.33.14-.3.2-.25.2-.23.28-.2.3-.13.32-.08.33-.03.35" stroke="#3a414a" stroke-width="3" fill="none"/><path d="M1257.07 528h-2.95v-1.54h2.95z" stroke="#3a414a" stroke-width=".05" fill="#3a414a"/><path d="M1130.67 514.65l-4.64-14.27h9.27z" stroke="#3a414a" stroke-width="3" fill="#3a414a"/><path d="M1130.67 565.33v5.6m0 7.47v5.6l.07.94.22.9.36.88.5.8.6.72.72.6.8.5.87.37.93.23.94.07h4.23m5.65 0h8.47m5.64 0h8.47m5.65 0h8.47m5.64 0h8.46m5.65 0h8.48m5.65 0h8.47m5.64 0h8.47m5.66 0h4.23l.93-.07.92-.22.87-.35.8-.5.72-.6.6-.72.5-.8.36-.88.22-.9.07-.95v-8.05" stroke="#3a414a" stroke-width="3" fill="none"/><path d="M1132.14 565.37h-2.95v-1.54h2.94z" stroke="#3a414a" stroke-width=".05" fill="#3a414a"/><path d="M1255.6 560.2l4.63 14.25h-9.27z" stroke="#3a414a" stroke-width="3" fill="#3a414a"/><path d="M1220 534a6 6 0 0 1 6-6h59.18a6 6 0 0 1 6 6v15.33a6 6 0 0 1-6 6H1226a6 6 0 0 1-6-6z" fill="#fff" fill-opacity="0"/><use xlink:href="#d" transform="matrix(1,0,0,1,1225,533) translate(0 12.444444444444446)"/><path d="M895.6 527v-3.58m0-4.76v-7.15m0-4.76v-3.57l.07-.94.22-.92.35-.86.5-.8.6-.72.72-.6.8-.5.87-.36.9-.22.95-.07h4.34m5.8 0h8.67m5.8 0h8.7m5.78 0h8.7m5.78 0h8.68m5.8 0h8.68m5.8 0h4.33l.35.02.34.07.32.14.3.2.26.2.22.28.18.3.14.32.08.33.03.35" stroke="#3a414a" stroke-width="3" fill="none"/><path d="M897.07 528.5h-2.95v-1.54h2.95z" stroke="#3a414a" stroke-width=".05" fill="#3a414a"/><path d="M990.67 515.15l-4.64-14.27h9.27z" stroke="#3a414a" stroke-width="3" fill="#3a414a"/><path d="M990.67 565.83v5.6m0 7.47v5.6l-.08.94-.23.9-.36.88-.48.8-.6.72-.73.6-.8.5-.88.37-.9.23-.95.07h-4.16m-5.52 0h-8.3m-5.55 0h-8.3m-5.55 0h-8.3m-5.54 0h-8.3m-5.55 0h-8.32m-5.53 0h-4.16l-.95-.07-.9-.22-.88-.35-.8-.5-.72-.6-.6-.72-.5-.8-.36-.88-.23-.9-.08-.95v-8.05" stroke="#3a414a" stroke-width="3" fill="none"/><path d="M992.14 565.87h-2.95v-1.54h2.94z" stroke="#3a414a" stroke-width=".05" fill="#3a414a"/><path d="M895.6 560.7l4.63 14.25h-9.27z" stroke="#3a414a" stroke-width="3" fill="#3a414a"/><path d="M860 534.5a6 6 0 0 1 6-6h59.18a6 6 0 0 1 6 6v15.33a6 6 0 0 1-6 6H866a6 6 0 0 1-6-6z" fill="#fff" fill-opacity="0"/><use xlink:href="#d" transform="matrix(1,0,0,1,865,533.4999500000002) translate(0 12.444444444444446)"/><defs><path fill="#3a414a" d="M212-179c-10-28-35-45-73-45-59 0-87 40-87 99 0 60 29 101 89 101 43 0 62-24 78-52l27 14C228-24 195 4 139 4 59 4 22-46 18-125c-6-104 99-153 187-111 19 9 31 26 39 46" id="e"/><path fill="#3a414a" d="M100-194c62-1 85 37 85 99 1 63-27 99-86 99S16-35 15-95c0-66 28-99 85-99zM99-20c44 1 53-31 53-75 0-43-8-75-51-75s-53 32-53 75 10 74 51 75" id="f"/><path fill="#3a414a" d="M117-194c89-4 53 116 60 194h-32v-121c0-31-8-49-39-48C34-167 62-67 57 0H25l-1-190h30c1 10-1 24 2 32 11-22 29-35 61-36" id="g"/><path fill="#3a414a" d="M59-47c-2 24 18 29 38 22v24C64 9 27 4 27-40v-127H5v-23h24l9-43h21v43h35v23H59v120" id="h"/><path fill="#3a414a" d="M100-194c63 0 86 42 84 106H49c0 40 14 67 53 68 26 1 43-12 49-29l28 8c-11 28-37 45-77 45C44 4 14-33 15-96c1-61 26-98 85-98zm52 81c6-60-76-77-97-28-3 7-6 17-6 28h103" id="i"/><path fill="#3a414a" d="M141 0L90-78 38 0H4l68-98-65-92h35l48 74 47-74h35l-64 92 68 98h-35" id="j"/><g id="a"><use transform="matrix(0.06172839506172839,0,0,0.06172839506172839,0,0)" xlink:href="#e"/><use transform="matrix(0.06172839506172839,0,0,0.06172839506172839,15.987654320987653,0)" xlink:href="#f"/><use transform="matrix(0.06172839506172839,0,0,0.06172839506172839,28.333333333333332,0)" xlink:href="#g"/><use transform="matrix(0.06172839506172839,0,0,0.06172839506172839,40.67901234567901,0)" xlink:href="#h"/><use transform="matrix(0.06172839506172839,0,0,0.06172839506172839,46.851851851851855,0)" xlink:href="#i"/><use transform="matrix(0.06172839506172839,0,0,0.06172839506172839,59.19753086419753,0)" xlink:href="#j"/><use transform="matrix(0.06172839506172839,0,0,0.06172839506172839,70.30864197530865,0)" xlink:href="#h"/></g><path fill="#3a414a" d="M30-248c87 1 191-15 191 75 0 78-77 80-158 76V0H30v-248zm33 125c57 0 124 11 124-50 0-59-68-47-124-48v98" id="k"/><path fill="#3a414a" d="M114-163C36-179 61-72 57 0H25l-1-190h30c1 12-1 29 2 39 6-27 23-49 58-41v29" id="l"/><path fill="#3a414a" d="M210-169c-67 3-38 105-44 169h-31v-121c0-29-5-50-35-48C34-165 62-65 56 0H25l-1-190h30c1 10-1 24 2 32 10-44 99-50 107 0 11-21 27-35 58-36 85-2 47 119 55 194h-31v-121c0-29-5-49-35-48" id="m"/><path fill="#3a414a" d="M115-194c55 1 70 41 70 98S169 2 115 4C84 4 66-9 55-30l1 105H24l-1-265h31l2 30c10-21 28-34 59-34zm-8 174c40 0 45-34 45-75s-6-73-45-74c-42 0-51 32-51 76 0 43 10 73 51 73" id="n"/><g id="b"><use transform="matrix(0.06172839506172839,0,0,0.06172839506172839,0,0)" xlink:href="#k"/><use transform="matrix(0.06172839506172839,0,0,0.06172839506172839,14.814814814814813,0)" xlink:href="#l"/><use transform="matrix(0.06172839506172839,0,0,0.06172839506172839,22.160493827160494,0)" xlink:href="#f"/><use transform="matrix(0.06172839506172839,0,0,0.06172839506172839,34.50617283950617,0)" xlink:href="#m"/><use transform="matrix(0.06172839506172839,0,0,0.06172839506172839,52.96296296296296,0)" xlink:href="#n"/><use transform="matrix(0.06172839506172839,0,0,0.06172839506172839,65.30864197530865,0)" xlink:href="#h"/></g><path fill="#3a414a" d="M233-177c-1 41-23 64-60 70L243 0h-38l-65-103H63V0H30v-248c88 3 205-21 203 71zM63-129c60-2 137 13 137-47 0-61-80-42-137-45v92" id="o"/><path fill="#3a414a" d="M135-143c-3-34-86-38-87 0 15 53 115 12 119 90S17 21 10-45l28-5c4 36 97 45 98 0-10-56-113-15-118-90-4-57 82-63 122-42 12 7 21 19 24 35" id="p"/><g id="c"><use transform="matrix(0.06172839506172839,0,0,0.06172839506172839,0,0)" xlink:href="#o"/><use transform="matrix(0.06172839506172839,0,0,0.06172839506172839,15.987654320987653,0)" xlink:href="#i"/><use transform="matrix(0.06172839506172839,0,0,0.06172839506172839,28.333333333333332,0)" xlink:href="#p"/><use transform="matrix(0.06172839506172839,0,0,0.06172839506172839,39.44444444444444,0)" xlink:href="#n"/><use transform="matrix(0.06172839506172839,0,0,0.06172839506172839,51.79012345679012,0)" xlink:href="#f"/><use transform="matrix(0.06172839506172839,0,0,0.06172839506172839,64.1358024691358,0)" xlink:href="#g"/><use transform="matrix(0.06172839506172839,0,0,0.06172839506172839,76.48148148148148,0)" xlink:href="#p"/><use transform="matrix(0.06172839506172839,0,0,0.06172839506172839,87.5925925925926,0)" xlink:href="#i"/></g><path fill="#3a414a" d="M6 0l48-248h52L58 0H6" id="q"/><path fill="#3a414a" d="M72-63c-8 23 5 39 32 30L98-1C54 14 12-6 23-64l18-93H15l7-33h28l24-45h31l-8 45h35l-6 33H90" id="r"/><path fill="#3a414a" d="M114-194c63-2 87 48 72 110H63c-3 28 1 55 31 54 21-1 32-13 37-29l44 13C160-14 137 4 91 4 41 4 11-22 11-73c0-71 33-119 103-121zm30 77c14-47-50-61-67-22-3 6-6 13-8 22h75" id="s"/><path fill="#3a414a" d="M84-151c13-25 34-51 72-40l-8 41C67-170 71-64 56 0H6l36-190h47" id="t"/><path fill="#3a414a" d="M166-52c-4 17 5 29 24 23l-3 27c-30 11-74 1-67-34C105-15 91 4 56 4 23 4 3-15 2-49c0-64 63-67 128-67 10-22 3-53-29-45-13 3-22 10-25 24l-46-5c5-64 156-77 153 0-1 33-11 60-17 90zM97-88c-44-9-64 57-19 57 31 0 42-28 47-57H97" id="u"/><path fill="#3a414a" d="M50-224l7-37h49l-7 37H50zM6 0l37-190h49L55 0H6" id="v"/><path fill="#3a414a" d="M124-194c51 0 84 22 84 74C207-44 167 4 94 4 43 4 11-23 11-74c0-74 41-120 113-120zM99-30c46 0 58-42 58-86 0-27-11-44-37-44-44 0-55 40-57 84-1 27 10 45 36 46" id="w"/><path fill="#3a414a" d="M151-194c95 0 34 128 28 194h-49l25-134c0-29-45-25-59-9C67-111 69-48 56 0H6l36-190h47l-4 32c15-20 33-36 66-36" id="x"/><g id="d"><use transform="matrix(0.04320987654320988,0,0,0.04320987654320988,0,0)" xlink:href="#q"/><use transform="matrix(0.04320987654320988,0,0,0.04320987654320988,4.320987654320988,0)" xlink:href="#r"/><use transform="matrix(0.04320987654320988,0,0,0.04320987654320988,9.462962962962964,0)" xlink:href="#s"/><use transform="matrix(0.04320987654320988,0,0,0.04320987654320988,18.10493827160494,0)" xlink:href="#t"/><use transform="matrix(0.04320987654320988,0,0,0.04320987654320988,24.154320987654323,0)" xlink:href="#u"/><use transform="matrix(0.04320987654320988,0,0,0.04320987654320988,32.7962962962963,0)" xlink:href="#r"/><use transform="matrix(0.04320987654320988,0,0,0.04320987654320988,37.93827160493827,0)" xlink:href="#v"/><use transform="matrix(0.04320987654320988,0,0,0.04320987654320988,42.25925925925926,0)" xlink:href="#w"/><use transform="matrix(0.04320987654320988,0,0,0.04320987654320988,51.722222222222214,0)" xlink:href="#x"/></g></defs></g></svg>