<svg xmlns="http://www.w3.org/2000/svg" xmlns:xlink="http://www.w3.org/1999/xlink" xmlns:lucid="lucid" width="404.83" height="225"><g transform="translate(-820 -477.0000499999992)" lucid:page-tab-id="0_0"><path d="M1080 526a6 6 0 0 1 6-6h89.33a6 6 0 0 1 6 6v31.33a6 6 0 0 1-6 6H1086a6 6 0 0 1-6-6z" stroke="#282c33" stroke-width="3" fill="#fff"/><use xlink:href="#a" transform="matrix(1,0,0,1,1092,532) translate(-2.2037037037037024 17.77777777777778)"/><path d="M940 526a6 6 0 0 1 6-6h89.33a6 6 0 0 1 6 6v31.33a6 6 0 0 1-6 6H946a6 6 0 0 1-6-6z" stroke="#282c33" stroke-width="2" fill="#fff"/><use xlink:href="#b" transform="matrix(1,0,0,1,952,532) translate(3.2592592592592595 17.77777777777778)"/><path d="M1000 631.33a6 6 0 0 1 6-6h108a6 6 0 0 1 6 6v31.34a6 6 0 0 1-6 6h-108a6 6 0 0 1-6-6z" stroke="#282c33" stroke-width="2" fill="#fff"/><use xlink:href="#c" transform="matrix(1,0,0,1,1012,637.3333333333334) translate(-1.9691358024691397 17.77777777777778)"/><path d="M990.67 564.83V584a6 6 0 0 0 6 6H1054a6 6 0 0 1 6 6v11.95" stroke="#3a414a" fill="none"/><path d="M991.14 564.85h-.95v-.52h.94z" stroke="#3a414a" stroke-width=".05" fill="#3a414a"/><path d="M1060 622.7l-4.63-14.25h9.27z" stroke="#3a414a" fill="#3a414a"/><path d="M1130.67 565.33V584a6 6 0 0 1-6 6H1066a6 6 0 0 0-6 6v11.95" stroke="#3a414a" fill="none"/><path d="M1131.14 565.35h-.95v-.52h.94z" stroke="#3a414a" stroke-width=".05" fill="#3a414a"/><path d="M1060 622.7l-4.63-14.25h9.27z" stroke="#3a414a" fill="#3a414a"/><path d="M1121.5 647h82.5a6 6 0 0 0 6-6v-93.33a6 6 0 0 0-6-6h-4.78" stroke="#3a414a" fill="none"/><path d="M1121.5 647.48h-.5v-.96h.5z" stroke="#3a414a" stroke-width=".05" fill="#3a414a"/><path d="M1184.45 541.67l14.27-4.64v9.27z" stroke="#3a414a" fill="#3a414a"/><path d="M935.6 632.17v-1.57m0-2.1v-3.14m0-2.1v-3.13m0-2.1v-3.13m0-2.1v-3.14m0-2.1V606l.07-.94.1-.46m.72-1.73l.24-.4.6-.7.73-.62.4-.25m1.73-.72l.45-.1.94-.08h1.46m1.97 0h2.94m1.96 0h2.94m1.97 0h2.94m1.96 0h2.94m1.97 0h2.94m1.95 0h2.94m1.96 0h2.94m1.96 0h2.94m1.97 0h2.94m1.97 0h2.94m1.98 0h2.94m1.96 0h2.94m1.97 0h2.93m1.96 0h2.93m1.97 0h2.94m1.96 0h2.94m1.97 0h2.95m1.96 0h2.95m1.97 0h2.94m1.96 0h2.94m1.97 0h2.94m1.96 0h2.94m1.97 0h1.47l.95.07.45.1m1.73.73l.4.25.72.6.6.72.26.4m.72 1.73l.1.46.1.94v1.95" stroke="#3a414a" fill="none"/><path d="M936.07 632.67h-.95v-.52h.95z" stroke="#3a414a" stroke-width=".05" fill="#3a414a"/><path d="M1060.4 622.7l-4.63-14.25h9.27z" stroke="#3a414a" fill="#3a414a"/><path d="M1060.4 670.17v1.38m0 1.84v2.76m0 1.85v2.77m0 1.85V684l-.07.94-.1.46m-.73 1.73l-.25.4-.6.7-.72.62-.4.25m-1.73.72l-.46.1-.94.08h-1.47m-1.96 0h-2.95m-1.96 0h-2.94m-1.96 0h-2.95m-1.95 0h-2.94m-1.95 0h-2.95m-1.96 0h-2.94m-1.96 0h-2.94m-1.97 0h-2.94m-1.97 0h-2.94m-1.98 0h-2.94m-1.96 0h-2.94m-1.97 0h-2.93m-1.96 0h-2.93m-1.96 0h-2.94m-1.96 0h-2.94m-1.96 0h-2.95m-1.96 0h-2.95m-1.96 0h-2.96m-1.96 0h-2.94m-1.96 0h-2.94m-1.97 0h-2.94m-1.96 0h-2.94m-1.97 0h-1.47l-.95-.07-.45-.1m-1.73-.73l-.4-.25-.72-.6-.6-.72-.26-.4m-.72-1.73l-.1-.46-.1-.94v-1.14m0-1.53v-2.28m0-1.52v-1.15" stroke="#3a414a" fill="none"/><path d="M1060.88 670.18h-.95v-.5h.95z" stroke="#3a414a" stroke-width=".05" fill="#3a414a"/><path d="M935.6 661.62l4.63 14.26h-9.27z" stroke="#3a414a" fill="#3a414a"/><path d="M900 638.67a6 6 0 0 1 6-6h59.18a6 6 0 0 1 6 6V654a6 6 0 0 1-6 6H906a6 6 0 0 1-6-6z" fill="#fff" fill-opacity="0"/><use xlink:href="#d" transform="matrix(1,0,0,1,905,637.6666666666667) translate(0 12.444444444444446)"/><path d="M875.6 527.5V526m0-1.98v-2.98m0-1.98v-2.98m0-2v-2.97m0-1.98v-2.98m0-1.98v-1.5l.07-.93.1-.46m.72-1.73l.24-.4.6-.72.73-.6.4-.25m1.73-.72l.45-.1.94-.08h1.47m1.96 0h2.95m1.96 0h2.95m1.95 0h2.95m1.96 0h2.95m1.97 0h2.95m1.96 0h2.95m1.96 0h2.94m1.96 0h2.95m1.97 0h2.94m1.97 0h2.94m1.97 0h2.94m1.97 0H942m1.96 0h2.94m1.97 0h2.95m1.96 0h2.95m1.96 0h2.94m1.96 0h2.95m1.96 0h2.96m1.96 0h2.95m1.96 0h2.95m1.96 0h1.48l.93.07.45.1m1.72.72l.4.24.7.6.6.72.25.4m.7 1.7l.12.46.07.94" stroke="#3a414a" fill="none"/><path d="M876.07 528h-.95v-.5h.95z" stroke="#3a414a" stroke-width=".05" fill="#3a414a"/><path d="M990.67 517.38l-4.64-14.26h9.27z" stroke="#3a414a" fill="#3a414a"/><path d="M990.67 564.83v1.44m0 1.92v2.86m0 1.92v2.87m0 1.92v2.88m0 1.9V584l-.08.94-.12.46m-.7 1.73l-.26.4-.6.7-.73.62-.4.25m-1.74.72l-.45.1-.93.08h-1.48m-1.97 0h-2.94m-1.98 0h-2.94m-1.97 0h-2.93m-1.96 0h-2.94m-1.96 0h-2.95m-1.96 0h-2.96m-1.96 0h-2.94m-1.97 0h-2.94m-1.96 0H939m-1.96 0h-2.95m-1.95 0h-2.95m-1.96 0h-2.95m-1.97 0h-2.94m-1.98 0h-2.94m-1.97 0h-2.93m-1.96 0h-2.94m-1.96 0h-2.95m-1.96 0h-2.95m-1.97 0h-2.94m-1.97 0h-2.94m-1.96 0h-1.48l-.95-.07-.45-.1m-1.73-.73l-.4-.25-.72-.6-.6-.72-.26-.4m-.72-1.73l-.1-.46-.1-.94v-1.84m0-2.46v-3.68m0-2.46v-1.84" stroke="#3a414a" fill="none"/><path d="M991.14 564.85h-.95v-.52h.94z" stroke="#3a414a" stroke-width=".05" fill="#3a414a"/><path d="M875.6 556.95l4.63 14.27h-9.27z" stroke="#3a414a" fill="#3a414a"/><path d="M840 534a6 6 0 0 1 6-6h59.18a6 6 0 0 1 6 6v15.33a6 6 0 0 1-6 6H846a6 6 0 0 1-6-6z" fill="#fff" fill-opacity="0"/><use xlink:href="#d" transform="matrix(1,0,0,1,845,533) translate(0 12.444444444444446)"/><defs><path fill="#3a414a" d="M67-125c0 53 21 87 73 88 37 1 54-22 65-47l45 17C233-25 199 4 140 4 58 4 20-42 15-125 8-235 124-281 211-232c18 10 29 29 36 50l-46 12c-8-25-30-41-62-41-52 0-71 34-72 86" id="e"/><path fill="#3a414a" d="M110-194c64 0 96 36 96 99 0 64-35 99-97 99-61 0-95-36-95-99 0-62 34-99 96-99zm-1 164c35 0 45-28 45-65 0-40-10-65-43-65-34 0-45 26-45 65 0 36 10 65 43 65" id="f"/><path fill="#3a414a" d="M135-194c87-1 58 113 63 194h-50c-7-57 23-157-34-157-59 0-34 97-39 157H25l-1-190h47c2 12-1 28 3 38 12-26 28-41 61-42" id="g"/><path fill="#3a414a" d="M115-3C79 11 28 4 28-45v-112H4v-33h27l15-45h31v45h36v33H77v99c-1 23 16 31 38 25v30" id="h"/><path fill="#3a414a" d="M185-48c-13 30-37 53-82 52C43 2 14-33 14-96s30-98 90-98c62 0 83 45 84 108H66c0 31 8 55 39 56 18 0 30-7 34-22zm-45-69c5-46-57-63-70-21-2 6-4 13-4 21h74" id="i"/><path fill="#3a414a" d="M144 0l-44-69L55 0H2l70-98-66-92h53l41 62 40-62h54l-67 91 71 99h-54" id="j"/><g id="a"><use transform="matrix(0.06172839506172839,0,0,0.06172839506172839,0,0)" xlink:href="#e"/><use transform="matrix(0.06172839506172839,0,0,0.06172839506172839,15.987654320987653,0)" xlink:href="#f"/><use transform="matrix(0.06172839506172839,0,0,0.06172839506172839,29.50617283950617,0)" xlink:href="#g"/><use transform="matrix(0.06172839506172839,0,0,0.06172839506172839,43.02469135802469,0)" xlink:href="#h"/><use transform="matrix(0.06172839506172839,0,0,0.06172839506172839,50.37037037037037,0)" xlink:href="#i"/><use transform="matrix(0.06172839506172839,0,0,0.06172839506172839,62.716049382716044,0)" xlink:href="#j"/><use transform="matrix(0.06172839506172839,0,0,0.06172839506172839,75.06172839506172,0)" xlink:href="#h"/></g><path fill="#3a414a" d="M30-248c87 1 191-15 191 75 0 78-77 80-158 76V0H30v-248zm33 125c57 0 124 11 124-50 0-59-68-47-124-48v98" id="k"/><path fill="#3a414a" d="M114-163C36-179 61-72 57 0H25l-1-190h30c1 12-1 29 2 39 6-27 23-49 58-41v29" id="l"/><path fill="#3a414a" d="M100-194c62-1 85 37 85 99 1 63-27 99-86 99S16-35 15-95c0-66 28-99 85-99zM99-20c44 1 53-31 53-75 0-43-8-75-51-75s-53 32-53 75 10 74 51 75" id="m"/><path fill="#3a414a" d="M210-169c-67 3-38 105-44 169h-31v-121c0-29-5-50-35-48C34-165 62-65 56 0H25l-1-190h30c1 10-1 24 2 32 10-44 99-50 107 0 11-21 27-35 58-36 85-2 47 119 55 194h-31v-121c0-29-5-49-35-48" id="n"/><path fill="#3a414a" d="M115-194c55 1 70 41 70 98S169 2 115 4C84 4 66-9 55-30l1 105H24l-1-265h31l2 30c10-21 28-34 59-34zm-8 174c40 0 45-34 45-75s-6-73-45-74c-42 0-51 32-51 76 0 43 10 73 51 73" id="o"/><path fill="#3a414a" d="M59-47c-2 24 18 29 38 22v24C64 9 27 4 27-40v-127H5v-23h24l9-43h21v43h35v23H59v120" id="p"/><g id="b"><use transform="matrix(0.06172839506172839,0,0,0.06172839506172839,0,0)" xlink:href="#k"/><use transform="matrix(0.06172839506172839,0,0,0.06172839506172839,14.814814814814813,0)" xlink:href="#l"/><use transform="matrix(0.06172839506172839,0,0,0.06172839506172839,22.160493827160494,0)" xlink:href="#m"/><use transform="matrix(0.06172839506172839,0,0,0.06172839506172839,34.50617283950617,0)" xlink:href="#n"/><use transform="matrix(0.06172839506172839,0,0,0.06172839506172839,52.96296296296296,0)" xlink:href="#o"/><use transform="matrix(0.06172839506172839,0,0,0.06172839506172839,65.30864197530865,0)" xlink:href="#p"/></g><path fill="#3a414a" d="M233-177c-1 41-23 64-60 70L243 0h-38l-65-103H63V0H30v-248c88 3 205-21 203 71zM63-129c60-2 137 13 137-47 0-61-80-42-137-45v92" id="q"/><path fill="#3a414a" d="M100-194c63 0 86 42 84 106H49c0 40 14 67 53 68 26 1 43-12 49-29l28 8c-11 28-37 45-77 45C44 4 14-33 15-96c1-61 26-98 85-98zm52 81c6-60-76-77-97-28-3 7-6 17-6 28h103" id="r"/><path fill="#3a414a" d="M135-143c-3-34-86-38-87 0 15 53 115 12 119 90S17 21 10-45l28-5c4 36 97 45 98 0-10-56-113-15-118-90-4-57 82-63 122-42 12 7 21 19 24 35" id="s"/><path fill="#3a414a" d="M117-194c89-4 53 116 60 194h-32v-121c0-31-8-49-39-48C34-167 62-67 57 0H25l-1-190h30c1 10-1 24 2 32 11-22 29-35 61-36" id="t"/><g id="c"><use transform="matrix(0.06172839506172839,0,0,0.06172839506172839,0,0)" xlink:href="#q"/><use transform="matrix(0.06172839506172839,0,0,0.06172839506172839,15.987654320987653,0)" xlink:href="#r"/><use transform="matrix(0.06172839506172839,0,0,0.06172839506172839,28.333333333333332,0)" xlink:href="#s"/><use transform="matrix(0.06172839506172839,0,0,0.06172839506172839,39.44444444444444,0)" xlink:href="#o"/><use transform="matrix(0.06172839506172839,0,0,0.06172839506172839,51.79012345679012,0)" xlink:href="#m"/><use transform="matrix(0.06172839506172839,0,0,0.06172839506172839,64.1358024691358,0)" xlink:href="#t"/><use transform="matrix(0.06172839506172839,0,0,0.06172839506172839,76.48148148148148,0)" xlink:href="#s"/><use transform="matrix(0.06172839506172839,0,0,0.06172839506172839,87.5925925925926,0)" xlink:href="#r"/></g><path fill="#3a414a" d="M14 0l48-248h34L48 0H14" id="u"/><path fill="#3a414a" d="M51-54c-9 22 5 41 31 30L79-1C43 14 10-4 19-52l22-115H19l5-23h22l19-43h21l-9 43h35l-4 23H73" id="v"/><path fill="#3a414a" d="M111-194c62-3 86 47 72 106H45c-7 38 6 69 45 68 27-1 43-14 53-32l24 11C152-15 129 4 87 4 38 3 12-23 12-71c0-70 32-119 99-123zm44 81c14-66-71-72-95-28-4 8-8 17-11 28h106" id="w"/><path fill="#3a414a" d="M66-151c12-25 30-51 66-40l-6 26C45-176 58-65 38 0H6l36-190h30" id="x"/><path fill="#3a414a" d="M165-48c-4 18 1 34 23 27l-3 20c-29 8-62 0-52-35h-2C116-14 99 4 63 4 30 4 8-16 8-49c0-68 71-67 138-67 10-26 0-56-31-54-26 1-42 9-47 31l-32-5c8-67 160-71 144 15-5 28-9 54-15 81zM42-50c3 52 80 24 89-6 7-12 7-24 11-38-47 1-103-4-100 44" id="y"/><path fill="#3a414a" d="M50-231l6-30h32l-6 30H50zM6 0l37-190h31L37 0H6" id="z"/><path fill="#3a414a" d="M30-147c31-64 166-65 159 27C183-49 158 1 86 4 9 8 1-88 30-147zM88-20c53 0 68-48 68-100 0-31-11-51-44-50-52 1-68 46-68 97 0 32 13 53 44 53" id="A"/><path fill="#3a414a" d="M67-158c22-48 132-52 116 29L158 0h-32l25-140c3-38-53-32-70-12C52-117 51-52 38 0H6l36-190h30" id="B"/><g id="d"><use transform="matrix(0.04320987654320988,0,0,0.04320987654320988,0,0)" xlink:href="#u"/><use transform="matrix(0.04320987654320988,0,0,0.04320987654320988,4.320987654320988,0)" xlink:href="#v"/><use transform="matrix(0.04320987654320988,0,0,0.04320987654320988,8.641975308641976,0)" xlink:href="#w"/><use transform="matrix(0.04320987654320988,0,0,0.04320987654320988,17.283950617283953,0)" xlink:href="#x"/><use transform="matrix(0.04320987654320988,0,0,0.04320987654320988,22.425925925925927,0)" xlink:href="#y"/><use transform="matrix(0.04320987654320988,0,0,0.04320987654320988,31.067901234567906,0)" xlink:href="#v"/><use transform="matrix(0.04320987654320988,0,0,0.04320987654320988,35.38888888888889,0)" xlink:href="#z"/><use transform="matrix(0.04320987654320988,0,0,0.04320987654320988,38.802469135802475,0)" xlink:href="#A"/><use transform="matrix(0.04320987654320988,0,0,0.04320987654320988,47.44444444444445,0)" xlink:href="#B"/></g></defs></g></svg>