<svg xmlns="http://www.w3.org/2000/svg" xmlns:xlink="http://www.w3.org/1999/xlink" xmlns:lucid="lucid" width="405.83" height="227.5"><g transform="translate(-820 -475.50004999999896)" lucid:page-tab-id="0_0"><path d="M1080 526a6 6 0 0 1 6-6h89.33a6 6 0 0 1 6 6v31.33a6 6 0 0 1-6 6H1086a6 6 0 0 1-6-6z" stroke="#282c33" stroke-width="3" fill="#fff"/><use xlink:href="#a" transform="matrix(1,0,0,1,1092,532) translate(-2.2037037037037024 17.77777777777778)"/><path d="M940 526a6 6 0 0 1 6-6h89.33a6 6 0 0 1 6 6v31.33a6 6 0 0 1-6 6H946a6 6 0 0 1-6-6z" stroke="#282c33" stroke-width="3" fill="#fff"/><use xlink:href="#b" transform="matrix(1,0,0,1,952,532) translate(0.2037037037037024 17.77777777777778)"/><path d="M1000 631.33a6 6 0 0 1 6-6h108a6 6 0 0 1 6 6v31.34a6 6 0 0 1-6 6h-108a6 6 0 0 1-6-6z" stroke="#282c33" stroke-width="3" fill="#fff"/><use xlink:href="#c" transform="matrix(1,0,0,1,1012,637.3333333333334) translate(-4.962962962962969 17.77777777777778)"/><path d="M990.67 565.83V584a6 6 0 0 0 6 6H1054a6 6 0 0 1 6 6v9.33" stroke="#3a414a" stroke-width="2" fill="none"/><path d="M991.64 565.86h-1.95v-1.03h1.94z" stroke="#3a414a" stroke-width=".05" fill="#3a414a"/><path d="M1060 620.6l-4.63-14.27h9.27z" stroke="#3a414a" stroke-width="2" fill="#3a414a"/><path d="M1130.67 565.83V584a6 6 0 0 1-6 6H1066a6 6 0 0 0-6 6v9.33" stroke="#3a414a" stroke-width="2" fill="none"/><path d="M1131.64 565.86h-1.95v-1.03h1.94z" stroke="#3a414a" stroke-width=".05" fill="#3a414a"/><path d="M1060 620.6l-4.63-14.27h9.27z" stroke="#3a414a" stroke-width="2" fill="#3a414a"/><path d="M1122.5 647h81.5a6 6 0 0 0 6-6v-93.33a6 6 0 0 0-6-6h-2.66" stroke="#3a414a" stroke-width="2" fill="none"/><path d="M1122.53 647.98h-1.03V646h1.03z" stroke="#3a414a" stroke-width=".05" fill="#3a414a"/><path d="M1186.07 541.67l14.27-4.64v9.27z" stroke="#3a414a" stroke-width="2" fill="#3a414a"/><path d="M935.6 631.67v-2.57m0-3.42v-5.14m0-3.42V612m0-3.43V606l.07-.94.22-.9.35-.88m2.62-2.63l.87-.36.9-.23.95-.07h3.1m4.12 0H955m4.13 0h6.2m4.12 0h6.2m4.12 0h6.2m4.12 0h6.17m4.13 0h6.2m4.12 0h6.2m4.12 0h6.2m4.12 0h6.2m4.1 0h6.2m4.13 0h3.1l.82.07.8.2.8.3m2.32 2.34l.32.78.2.82.06.83" stroke="#3a414a" stroke-width="2" fill="none"/><path d="M936.57 632.67h-1.95v-1.03h1.95z" stroke="#3a414a" stroke-width=".05" fill="#3a414a"/><path d="M1060.42 620.6l-4.64-14.27h9.27z" stroke="#3a414a" stroke-width="2" fill="#3a414a"/><path d="M1060.42 671.17v3.85m0 5.13V684l-.08.94-.22.9-.36.88m-2.62 2.63l-.87.36-.9.23-.95.07h-3.08m-4.1 0h-6.16m-4.1 0h-6.15m-4.1 0h-6.16m-4.1 0h-6.16m-4.1 0h-6.14m-4.1 0h-6.16m-4.1 0h-6.16m-4.1 0h-6.15m-4.12 0h-6.15m-4.1 0h-6.16m-4.1 0h-3.08l-.95-.07-.9-.22-.88-.35m-2.62-2.63l-.36-.87-.23-.9-.08-.95v-5.5" stroke="#3a414a" stroke-width="2" fill="none"/><path d="M1061.4 671.2h-1.96v-1.03h1.95z" stroke="#3a414a" stroke-width=".05" fill="#3a414a"/><path d="M935.6 663.24l4.63 14.26h-9.27z" stroke="#3a414a" stroke-width="2" fill="#3a414a"/><path d="M900 638.67a6 6 0 0 1 6-6h59.18a6 6 0 0 1 6 6V654a6 6 0 0 1-6 6H906a6 6 0 0 1-6-6z" fill="#fff" fill-opacity="0"/><use xlink:href="#d" transform="matrix(1,0,0,1,905,637.6666666666667) translate(0 12.444444444444446)"/><path d="M875.6 527v-3.65m0-4.87v-7.3m0-4.86v-3.65l.07-.94.22-.92.35-.86m2.62-2.62l.87-.36.9-.22.95-.07h2.88m3.84 0h5.77m3.83 0h5.77m3.85 0h5.77m3.84 0h5.77m3.84 0h5.77m3.85 0h5.75m3.85 0h5.77m3.84 0h5.78m3.85 0H971m3.84 0h5.77m3.85 0h2.88l.53.04.5.13.5.2.43.27.4.34.33.4.27.45.2.47.13.5.04.53" stroke="#3a414a" stroke-width="2" fill="none"/><path d="M876.57 528h-1.95v-1.03h1.95z" stroke="#3a414a" stroke-width=".05" fill="#3a414a"/><path d="M990.67 515.26L986.03 501h9.27z" stroke="#3a414a" stroke-width="2" fill="#3a414a"/><path d="M990.67 565.83v2.73m0 3.63v5.44m0 3.63V584l-.08.94-.23.9-.36.88m-2.6 2.63l-.88.36-.9.23-.95.07h-3.1m-4.12 0h-6.18m-4.13 0h-6.18m-4.12 0h-6.2m-4.1 0h-6.2m-4.12 0h-6.18m-4.13 0h-6.17m-4.12 0h-6.18m-4.12 0h-6.18m-4.13 0h-6.2m-4.12 0h-3.1l-.93-.07-.9-.22-.88-.35m-2.62-2.63l-.36-.87-.23-.9-.08-.95v-3.05m0-4.07v-3.04" stroke="#3a414a" stroke-width="2" fill="none"/><path d="M991.64 565.86h-1.95v-1.03h1.94z" stroke="#3a414a" stroke-width=".05" fill="#3a414a"/><path d="M875.6 558.57l4.63 14.26h-9.27z" stroke="#3a414a" stroke-width="2" fill="#3a414a"/><path d="M840 534a6 6 0 0 1 6-6h59.18a6 6 0 0 1 6 6v15.33a6 6 0 0 1-6 6H846a6 6 0 0 1-6-6z" fill="#fff" fill-opacity="0"/><use xlink:href="#d" transform="matrix(1,0,0,1,845,533) translate(0 12.444444444444446)"/><defs><path fill="#3a414a" d="M67-125c0 53 21 87 73 88 37 1 54-22 65-47l45 17C233-25 199 4 140 4 58 4 20-42 15-125 8-235 124-281 211-232c18 10 29 29 36 50l-46 12c-8-25-30-41-62-41-52 0-71 34-72 86" id="e"/><path fill="#3a414a" d="M110-194c64 0 96 36 96 99 0 64-35 99-97 99-61 0-95-36-95-99 0-62 34-99 96-99zm-1 164c35 0 45-28 45-65 0-40-10-65-43-65-34 0-45 26-45 65 0 36 10 65 43 65" id="f"/><path fill="#3a414a" d="M135-194c87-1 58 113 63 194h-50c-7-57 23-157-34-157-59 0-34 97-39 157H25l-1-190h47c2 12-1 28 3 38 12-26 28-41 61-42" id="g"/><path fill="#3a414a" d="M115-3C79 11 28 4 28-45v-112H4v-33h27l15-45h31v45h36v33H77v99c-1 23 16 31 38 25v30" id="h"/><path fill="#3a414a" d="M185-48c-13 30-37 53-82 52C43 2 14-33 14-96s30-98 90-98c62 0 83 45 84 108H66c0 31 8 55 39 56 18 0 30-7 34-22zm-45-69c5-46-57-63-70-21-2 6-4 13-4 21h74" id="i"/><path fill="#3a414a" d="M144 0l-44-69L55 0H2l70-98-66-92h53l41 62 40-62h54l-67 91 71 99h-54" id="j"/><g id="a"><use transform="matrix(0.06172839506172839,0,0,0.06172839506172839,0,0)" xlink:href="#e"/><use transform="matrix(0.06172839506172839,0,0,0.06172839506172839,15.987654320987653,0)" xlink:href="#f"/><use transform="matrix(0.06172839506172839,0,0,0.06172839506172839,29.50617283950617,0)" xlink:href="#g"/><use transform="matrix(0.06172839506172839,0,0,0.06172839506172839,43.02469135802469,0)" xlink:href="#h"/><use transform="matrix(0.06172839506172839,0,0,0.06172839506172839,50.37037037037037,0)" xlink:href="#i"/><use transform="matrix(0.06172839506172839,0,0,0.06172839506172839,62.716049382716044,0)" xlink:href="#j"/><use transform="matrix(0.06172839506172839,0,0,0.06172839506172839,75.06172839506172,0)" xlink:href="#h"/></g><path fill="#3a414a" d="M24-248c93 1 206-16 204 79-1 75-69 88-152 82V0H24v-248zm52 121c47 0 100 7 100-41 0-47-54-39-100-39v80" id="k"/><path fill="#3a414a" d="M135-150c-39-12-60 13-60 57V0H25l-1-190h47c2 13-1 29 3 40 6-28 27-53 61-41v41" id="l"/><path fill="#3a414a" d="M220-157c-53 9-28 100-34 157h-49v-107c1-27-5-49-29-50C55-147 81-57 75 0H25l-1-190h47c2 12-1 28 3 38 10-53 101-56 108 0 13-22 24-43 59-42 82 1 51 116 57 194h-49v-107c-1-25-5-48-29-50" id="m"/><path fill="#3a414a" d="M135-194c53 0 70 44 70 98 0 56-19 98-73 100-31 1-45-17-59-34 3 33 2 69 2 105H25l-1-265h48c2 10 0 23 3 31 11-24 29-35 60-35zM114-30c33 0 39-31 40-66 0-38-9-64-40-64-56 0-55 130 0 130" id="n"/><g id="b"><use transform="matrix(0.06172839506172839,0,0,0.06172839506172839,0,0)" xlink:href="#k"/><use transform="matrix(0.06172839506172839,0,0,0.06172839506172839,14.814814814814813,0)" xlink:href="#l"/><use transform="matrix(0.06172839506172839,0,0,0.06172839506172839,23.456790123456788,0)" xlink:href="#f"/><use transform="matrix(0.06172839506172839,0,0,0.06172839506172839,36.9753086419753,0)" xlink:href="#m"/><use transform="matrix(0.06172839506172839,0,0,0.06172839506172839,56.72839506172839,0)" xlink:href="#n"/><use transform="matrix(0.06172839506172839,0,0,0.06172839506172839,70.24691358024691,0)" xlink:href="#h"/></g><path fill="#3a414a" d="M240-174c0 40-23 61-54 70L253 0h-59l-57-94H76V0H24v-248c93 4 217-23 216 74zM76-134c48-2 112 12 112-38 0-48-66-32-112-35v73" id="o"/><path fill="#3a414a" d="M137-138c1-29-70-34-71-4 15 46 118 7 119 86 1 83-164 76-172 9l43-7c4 19 20 25 44 25 33 8 57-30 24-41C81-84 22-81 20-136c-2-80 154-74 161-7" id="p"/><g id="c"><use transform="matrix(0.06172839506172839,0,0,0.06172839506172839,0,0)" xlink:href="#o"/><use transform="matrix(0.06172839506172839,0,0,0.06172839506172839,15.987654320987653,0)" xlink:href="#i"/><use transform="matrix(0.06172839506172839,0,0,0.06172839506172839,28.333333333333332,0)" xlink:href="#p"/><use transform="matrix(0.06172839506172839,0,0,0.06172839506172839,40.67901234567901,0)" xlink:href="#n"/><use transform="matrix(0.06172839506172839,0,0,0.06172839506172839,54.19753086419753,0)" xlink:href="#f"/><use transform="matrix(0.06172839506172839,0,0,0.06172839506172839,67.71604938271605,0)" xlink:href="#g"/><use transform="matrix(0.06172839506172839,0,0,0.06172839506172839,81.23456790123457,0)" xlink:href="#p"/><use transform="matrix(0.06172839506172839,0,0,0.06172839506172839,93.58024691358025,0)" xlink:href="#i"/></g><path fill="#3a414a" d="M6 0l48-248h52L58 0H6" id="q"/><path fill="#3a414a" d="M72-63c-8 23 5 39 32 30L98-1C54 14 12-6 23-64l18-93H15l7-33h28l24-45h31l-8 45h35l-6 33H90" id="r"/><path fill="#3a414a" d="M114-194c63-2 87 48 72 110H63c-3 28 1 55 31 54 21-1 32-13 37-29l44 13C160-14 137 4 91 4 41 4 11-22 11-73c0-71 33-119 103-121zm30 77c14-47-50-61-67-22-3 6-6 13-8 22h75" id="s"/><path fill="#3a414a" d="M84-151c13-25 34-51 72-40l-8 41C67-170 71-64 56 0H6l36-190h47" id="t"/><path fill="#3a414a" d="M166-52c-4 17 5 29 24 23l-3 27c-30 11-74 1-67-34C105-15 91 4 56 4 23 4 3-15 2-49c0-64 63-67 128-67 10-22 3-53-29-45-13 3-22 10-25 24l-46-5c5-64 156-77 153 0-1 33-11 60-17 90zM97-88c-44-9-64 57-19 57 31 0 42-28 47-57H97" id="u"/><path fill="#3a414a" d="M50-224l7-37h49l-7 37H50zM6 0l37-190h49L55 0H6" id="v"/><path fill="#3a414a" d="M124-194c51 0 84 22 84 74C207-44 167 4 94 4 43 4 11-23 11-74c0-74 41-120 113-120zM99-30c46 0 58-42 58-86 0-27-11-44-37-44-44 0-55 40-57 84-1 27 10 45 36 46" id="w"/><path fill="#3a414a" d="M151-194c95 0 34 128 28 194h-49l25-134c0-29-45-25-59-9C67-111 69-48 56 0H6l36-190h47l-4 32c15-20 33-36 66-36" id="x"/><g id="d"><use transform="matrix(0.04320987654320988,0,0,0.04320987654320988,0,0)" xlink:href="#q"/><use transform="matrix(0.04320987654320988,0,0,0.04320987654320988,4.320987654320988,0)" xlink:href="#r"/><use transform="matrix(0.04320987654320988,0,0,0.04320987654320988,9.462962962962964,0)" xlink:href="#s"/><use transform="matrix(0.04320987654320988,0,0,0.04320987654320988,18.10493827160494,0)" xlink:href="#t"/><use transform="matrix(0.04320987654320988,0,0,0.04320987654320988,24.154320987654323,0)" xlink:href="#u"/><use transform="matrix(0.04320987654320988,0,0,0.04320987654320988,32.7962962962963,0)" xlink:href="#r"/><use transform="matrix(0.04320987654320988,0,0,0.04320987654320988,37.93827160493827,0)" xlink:href="#v"/><use transform="matrix(0.04320987654320988,0,0,0.04320987654320988,42.25925925925926,0)" xlink:href="#w"/><use transform="matrix(0.04320987654320988,0,0,0.04320987654320988,51.722222222222214,0)" xlink:href="#x"/></g></defs></g></svg>