<svg xmlns="http://www.w3.org/2000/svg" xmlns:xlink="http://www.w3.org/1999/xlink" xmlns:lucid="lucid" width="471.19" height="214.67"><g transform="translate(-840 -476.0000499999986)" lucid:page-tab-id="0_0"><path d="M1080 526a6 6 0 0 1 6-6h89.33a6 6 0 0 1 6 6v31.33a6 6 0 0 1-6 6H1086a6 6 0 0 1-6-6z" stroke="#282c33" stroke-width="2" fill="#fff"/><use xlink:href="#a" transform="matrix(1,0,0,1,1092,532) translate(0.7592592592592595 17.77777777777778)"/><path d="M940 526a6 6 0 0 1 6-6h89.33a6 6 0 0 1 6 6v31.33a6 6 0 0 1-6 6H946a6 6 0 0 1-6-6z" stroke="#282c33" stroke-width="4" fill="#fff"/><use xlink:href="#b" transform="matrix(1,0,0,1,952,532) translate(0.2037037037037024 17.77777777777778)"/><path d="M1000 631.33a6 6 0 0 1 6-6h108a6 6 0 0 1 6 6v31.34a6 6 0 0 1-6 6h-108a6 6 0 0 1-6-6z" stroke="#282c33" stroke-width="4" fill="#fff"/><use xlink:href="#c" transform="matrix(1,0,0,1,1012,637.3333333333334) translate(-4.962962962962969 17.77777777777778)"/><path d="M990.67 566.83V584a6 6 0 0 0 6 6H1054a6 6 0 0 1 6 6v6.7" stroke="#3a414a" stroke-width="3" fill="none"/><path d="M992.14 566.87h-2.95v-1.54h2.94z" stroke="#3a414a" stroke-width=".05" fill="#3a414a"/><path d="M1060 618.48l-4.63-14.27h9.27z" stroke="#3a414a" stroke-width="3" fill="#3a414a"/><path d="M1130.67 564.83V584a6 6 0 0 1-6 6H1066a6 6 0 0 0-6 6v10.95" stroke="#3a414a" fill="none"/><path d="M1131.14 564.85h-.95v-.52h.94z" stroke="#3a414a" stroke-width=".05" fill="#3a414a"/><path d="M1060 621.7l-4.63-14.25h9.27z" stroke="#3a414a" fill="#3a414a"/><path d="M1122.5 647h81.5a6 6 0 0 0 6-6v-93.33a6 6 0 0 0-6-6h-5.28" stroke="#3a414a" fill="none"/><path d="M1122.5 647.48h-.5v-.96h.5z" stroke="#3a414a" stroke-width=".05" fill="#3a414a"/><path d="M1183.95 541.67l14.27-4.64v9.27z" stroke="#3a414a" fill="#3a414a"/><path d="M1255.6 527.5v-1.44m0-1.9v-2.88m0-1.92v-2.87m0-1.92v-2.87m0-1.9v-2.88m0-1.9v-2.88m0-1.92v-2.87m0-1.9V494l-.08-.94-.1-.46m-.73-1.73l-.25-.4-.62-.7-.7-.62-.4-.25m-1.74-.72l-.47-.1-.94-.08h-1.48m-1.96 0h-2.95m-1.95 0h-2.95m-1.96 0h-2.95m-1.97 0h-2.95m-1.96 0h-2.95m-1.96 0h-2.94m-1.96 0h-2.95m-1.96 0h-2.96m-1.96 0h-2.95m-1.96 0h-2.95m-1.96 0h-2.95m-1.95 0h-2.95m-1.96 0h-2.95m-1.97 0h-2.95m-1.96 0h-2.95m-1.96 0h-2.94m-1.96 0h-2.95m-1.96 0h-2.96m-1.96 0h-2.95m-1.96 0h-2.95m-1.96 0H1145m-1.95 0h-2.95m-1.96 0h-1.47l-.94.07-.46.1m-1.73.73l-.4.25-.72.6-.6.72-.25.4m-.72 1.73l-.1.46-.08.94v1.3m0 1.72v2.58m0 1.72v1.3" stroke="#3a414a" fill="none"/><path d="M1256.07 528h-.95v-.5h.95z" stroke="#3a414a" stroke-width=".05" fill="#3a414a"/><path d="M1130.67 517.38l-4.64-14.26h9.27z" stroke="#3a414a" fill="#3a414a"/><path d="M1130.67 564.83v1.44m0 1.92v2.86m0 1.92v2.87m0 1.92v2.88m0 1.9V584l.07.94.1.46m.73 1.73l.24.4.62.7.72.62.4.25m1.73.72l.46.1.94.08h1.47m1.96 0h2.95m1.96 0h2.96m1.96 0h2.95m1.96 0h2.95m1.96 0h2.95m1.95 0h2.95m1.96 0h2.95m1.97 0h2.95m1.96 0h2.95m1.96 0h2.94m1.96 0h2.95m1.96 0h2.96m1.96 0h2.95m1.96 0h2.95m1.96 0h2.95m1.95 0h2.95m1.96 0h2.95m1.97 0h2.95m1.96 0h2.95m1.96 0h2.94m1.96 0h2.95m1.96 0h2.96m1.96 0h1.47l.93-.07.46-.1m1.72-.73l.4-.25.72-.6.6-.72.25-.4m.7-1.73l.12-.46.07-.94v-1.84m0-2.46v-3.68m0-2.46v-1.84" stroke="#3a414a" fill="none"/><path d="M1131.14 564.85h-.95v-.52h.94z" stroke="#3a414a" stroke-width=".05" fill="#3a414a"/><path d="M1255.6 556.95l4.63 14.27h-9.27z" stroke="#3a414a" fill="#3a414a"/><path d="M1220 534a6 6 0 0 1 6-6h59.18a6 6 0 0 1 6 6v15.33a6 6 0 0 1-6 6H1226a6 6 0 0 1-6-6z" fill="#fff" fill-opacity="0"/><use xlink:href="#d" transform="matrix(1,0,0,1,1225,533) translate(0 12.444444444444446)"/><path d="M895.6 527.5V526m0-1.98v-2.98m0-1.98v-2.98m0-2v-2.97m0-1.98v-2.98m0-1.98v-1.5l.07-.93.1-.46m.72-1.73l.24-.4.6-.72.73-.6.4-.25m1.73-.72l.45-.1.94-.08h1.48m1.98 0h2.97m1.98 0h2.97m1.98 0h2.97m1.98 0h2.97m1.98 0h2.97m1.98 0h2.97m1.98 0h2.97m1.98 0h2.96m2 0h2.95m2 0h2.96m1.98 0h2.97m2 0h2.96m1.98 0h2.97m2 0h2.96m1.98 0h2.96m1.98 0h2.97m1.98 0h1.5l.76.06.37.1m1.42.58l.33.2.6.52.5.6.2.32m.6 1.42l.08.38.07.78" stroke="#3a414a" fill="none"/><path d="M896.07 528h-.95v-.5h.95z" stroke="#3a414a" stroke-width=".05" fill="#3a414a"/><path d="M990.67 516.38l-4.64-14.26h9.27z" stroke="#3a414a" fill="#3a414a"/><path d="M990.67 565.83v1.37m0 1.8v2.74m0 1.8v2.74m0 1.82v2.72m0 1.82V584l-.08.94-.12.46m-.7 1.73l-.26.4-.6.7-.73.62-.4.25m-1.74.72l-.45.1-.93.08h-1.47m-1.95 0h-2.94m-1.94 0h-2.93m-1.96 0h-2.93m-1.95 0h-2.95m-1.95 0h-2.93m-1.96 0h-2.92m-1.95 0H949m-1.96 0h-2.93m-1.95 0h-2.93m-1.95 0h-2.94m-1.95 0h-2.93m-1.96 0h-2.94m-1.95 0h-2.93m-1.95 0h-2.93m-1.97 0h-2.93m-1.95 0H905m-1.94 0h-1.47l-.95-.07-.45-.1m-1.73-.73l-.4-.25-.72-.6-.6-.72-.26-.4m-.72-1.73l-.1-.46-.1-.94v-1.84m0-2.46v-3.68m0-2.46v-1.84" stroke="#3a414a" fill="none"/><path d="M991.14 565.85h-.95v-.52h.94z" stroke="#3a414a" stroke-width=".05" fill="#3a414a"/><path d="M895.6 556.95l4.63 14.27h-9.27z" stroke="#3a414a" fill="#3a414a"/><path d="M860 534a6 6 0 0 1 6-6h59.18a6 6 0 0 1 6 6v15.33a6 6 0 0 1-6 6H866a6 6 0 0 1-6-6z" fill="#fff" fill-opacity="0"/><use xlink:href="#d" transform="matrix(1,0,0,1,865,533) translate(0 12.444444444444446)"/><defs><path fill="#3a414a" d="M212-179c-10-28-35-45-73-45-59 0-87 40-87 99 0 60 29 101 89 101 43 0 62-24 78-52l27 14C228-24 195 4 139 4 59 4 22-46 18-125c-6-104 99-153 187-111 19 9 31 26 39 46" id="e"/><path fill="#3a414a" d="M100-194c62-1 85 37 85 99 1 63-27 99-86 99S16-35 15-95c0-66 28-99 85-99zM99-20c44 1 53-31 53-75 0-43-8-75-51-75s-53 32-53 75 10 74 51 75" id="f"/><path fill="#3a414a" d="M117-194c89-4 53 116 60 194h-32v-121c0-31-8-49-39-48C34-167 62-67 57 0H25l-1-190h30c1 10-1 24 2 32 11-22 29-35 61-36" id="g"/><path fill="#3a414a" d="M59-47c-2 24 18 29 38 22v24C64 9 27 4 27-40v-127H5v-23h24l9-43h21v43h35v23H59v120" id="h"/><path fill="#3a414a" d="M100-194c63 0 86 42 84 106H49c0 40 14 67 53 68 26 1 43-12 49-29l28 8c-11 28-37 45-77 45C44 4 14-33 15-96c1-61 26-98 85-98zm52 81c6-60-76-77-97-28-3 7-6 17-6 28h103" id="i"/><path fill="#3a414a" d="M141 0L90-78 38 0H4l68-98-65-92h35l48 74 47-74h35l-64 92 68 98h-35" id="j"/><g id="a"><use transform="matrix(0.06172839506172839,0,0,0.06172839506172839,0,0)" xlink:href="#e"/><use transform="matrix(0.06172839506172839,0,0,0.06172839506172839,15.987654320987653,0)" xlink:href="#f"/><use transform="matrix(0.06172839506172839,0,0,0.06172839506172839,28.333333333333332,0)" xlink:href="#g"/><use transform="matrix(0.06172839506172839,0,0,0.06172839506172839,40.67901234567901,0)" xlink:href="#h"/><use transform="matrix(0.06172839506172839,0,0,0.06172839506172839,46.851851851851855,0)" xlink:href="#i"/><use transform="matrix(0.06172839506172839,0,0,0.06172839506172839,59.19753086419753,0)" xlink:href="#j"/><use transform="matrix(0.06172839506172839,0,0,0.06172839506172839,70.30864197530865,0)" xlink:href="#h"/></g><path fill="#3a414a" d="M24-248c93 1 206-16 204 79-1 75-69 88-152 82V0H24v-248zm52 121c47 0 100 7 100-41 0-47-54-39-100-39v80" id="k"/><path fill="#3a414a" d="M135-150c-39-12-60 13-60 57V0H25l-1-190h47c2 13-1 29 3 40 6-28 27-53 61-41v41" id="l"/><path fill="#3a414a" d="M110-194c64 0 96 36 96 99 0 64-35 99-97 99-61 0-95-36-95-99 0-62 34-99 96-99zm-1 164c35 0 45-28 45-65 0-40-10-65-43-65-34 0-45 26-45 65 0 36 10 65 43 65" id="m"/><path fill="#3a414a" d="M220-157c-53 9-28 100-34 157h-49v-107c1-27-5-49-29-50C55-147 81-57 75 0H25l-1-190h47c2 12-1 28 3 38 10-53 101-56 108 0 13-22 24-43 59-42 82 1 51 116 57 194h-49v-107c-1-25-5-48-29-50" id="n"/><path fill="#3a414a" d="M135-194c53 0 70 44 70 98 0 56-19 98-73 100-31 1-45-17-59-34 3 33 2 69 2 105H25l-1-265h48c2 10 0 23 3 31 11-24 29-35 60-35zM114-30c33 0 39-31 40-66 0-38-9-64-40-64-56 0-55 130 0 130" id="o"/><path fill="#3a414a" d="M115-3C79 11 28 4 28-45v-112H4v-33h27l15-45h31v45h36v33H77v99c-1 23 16 31 38 25v30" id="p"/><g id="b"><use transform="matrix(0.06172839506172839,0,0,0.06172839506172839,0,0)" xlink:href="#k"/><use transform="matrix(0.06172839506172839,0,0,0.06172839506172839,14.814814814814813,0)" xlink:href="#l"/><use transform="matrix(0.06172839506172839,0,0,0.06172839506172839,23.456790123456788,0)" xlink:href="#m"/><use transform="matrix(0.06172839506172839,0,0,0.06172839506172839,36.9753086419753,0)" xlink:href="#n"/><use transform="matrix(0.06172839506172839,0,0,0.06172839506172839,56.72839506172839,0)" xlink:href="#o"/><use transform="matrix(0.06172839506172839,0,0,0.06172839506172839,70.24691358024691,0)" xlink:href="#p"/></g><path fill="#3a414a" d="M240-174c0 40-23 61-54 70L253 0h-59l-57-94H76V0H24v-248c93 4 217-23 216 74zM76-134c48-2 112 12 112-38 0-48-66-32-112-35v73" id="q"/><path fill="#3a414a" d="M185-48c-13 30-37 53-82 52C43 2 14-33 14-96s30-98 90-98c62 0 83 45 84 108H66c0 31 8 55 39 56 18 0 30-7 34-22zm-45-69c5-46-57-63-70-21-2 6-4 13-4 21h74" id="r"/><path fill="#3a414a" d="M137-138c1-29-70-34-71-4 15 46 118 7 119 86 1 83-164 76-172 9l43-7c4 19 20 25 44 25 33 8 57-30 24-41C81-84 22-81 20-136c-2-80 154-74 161-7" id="s"/><path fill="#3a414a" d="M135-194c87-1 58 113 63 194h-50c-7-57 23-157-34-157-59 0-34 97-39 157H25l-1-190h47c2 12-1 28 3 38 12-26 28-41 61-42" id="t"/><g id="c"><use transform="matrix(0.06172839506172839,0,0,0.06172839506172839,0,0)" xlink:href="#q"/><use transform="matrix(0.06172839506172839,0,0,0.06172839506172839,15.987654320987653,0)" xlink:href="#r"/><use transform="matrix(0.06172839506172839,0,0,0.06172839506172839,28.333333333333332,0)" xlink:href="#s"/><use transform="matrix(0.06172839506172839,0,0,0.06172839506172839,40.67901234567901,0)" xlink:href="#o"/><use transform="matrix(0.06172839506172839,0,0,0.06172839506172839,54.19753086419753,0)" xlink:href="#m"/><use transform="matrix(0.06172839506172839,0,0,0.06172839506172839,67.71604938271605,0)" xlink:href="#t"/><use transform="matrix(0.06172839506172839,0,0,0.06172839506172839,81.23456790123457,0)" xlink:href="#s"/><use transform="matrix(0.06172839506172839,0,0,0.06172839506172839,93.58024691358025,0)" xlink:href="#r"/></g><path fill="#3a414a" d="M14 0l48-248h34L48 0H14" id="u"/><path fill="#3a414a" d="M51-54c-9 22 5 41 31 30L79-1C43 14 10-4 19-52l22-115H19l5-23h22l19-43h21l-9 43h35l-4 23H73" id="v"/><path fill="#3a414a" d="M111-194c62-3 86 47 72 106H45c-7 38 6 69 45 68 27-1 43-14 53-32l24 11C152-15 129 4 87 4 38 3 12-23 12-71c0-70 32-119 99-123zm44 81c14-66-71-72-95-28-4 8-8 17-11 28h106" id="w"/><path fill="#3a414a" d="M66-151c12-25 30-51 66-40l-6 26C45-176 58-65 38 0H6l36-190h30" id="x"/><path fill="#3a414a" d="M165-48c-4 18 1 34 23 27l-3 20c-29 8-62 0-52-35h-2C116-14 99 4 63 4 30 4 8-16 8-49c0-68 71-67 138-67 10-26 0-56-31-54-26 1-42 9-47 31l-32-5c8-67 160-71 144 15-5 28-9 54-15 81zM42-50c3 52 80 24 89-6 7-12 7-24 11-38-47 1-103-4-100 44" id="y"/><path fill="#3a414a" d="M50-231l6-30h32l-6 30H50zM6 0l37-190h31L37 0H6" id="z"/><path fill="#3a414a" d="M30-147c31-64 166-65 159 27C183-49 158 1 86 4 9 8 1-88 30-147zM88-20c53 0 68-48 68-100 0-31-11-51-44-50-52 1-68 46-68 97 0 32 13 53 44 53" id="A"/><path fill="#3a414a" d="M67-158c22-48 132-52 116 29L158 0h-32l25-140c3-38-53-32-70-12C52-117 51-52 38 0H6l36-190h30" id="B"/><g id="d"><use transform="matrix(0.04320987654320988,0,0,0.04320987654320988,0,0)" xlink:href="#u"/><use transform="matrix(0.04320987654320988,0,0,0.04320987654320988,4.320987654320988,0)" xlink:href="#v"/><use transform="matrix(0.04320987654320988,0,0,0.04320987654320988,8.641975308641976,0)" xlink:href="#w"/><use transform="matrix(0.04320987654320988,0,0,0.04320987654320988,17.283950617283953,0)" xlink:href="#x"/><use transform="matrix(0.04320987654320988,0,0,0.04320987654320988,22.425925925925927,0)" xlink:href="#y"/><use transform="matrix(0.04320987654320988,0,0,0.04320987654320988,31.067901234567906,0)" xlink:href="#v"/><use transform="matrix(0.04320987654320988,0,0,0.04320987654320988,35.38888888888889,0)" xlink:href="#z"/><use transform="matrix(0.04320987654320988,0,0,0.04320987654320988,38.802469135802475,0)" xlink:href="#A"/><use transform="matrix(0.04320987654320988,0,0,0.04320987654320988,47.44444444444445,0)" xlink:href="#B"/></g></defs></g></svg>